PathFileType	4	(X/Y/Z)	Kaydara																																																																																																																									
DataRate	CameraRate	NumFrames	NumMarkers	Units	OrigDataRate	OrigDataStartFrame	OrigNumFrames																																																																																																																					
30	30	8	41	mm	30	147	195																																																																																																																					
Frame#	Time	NABA_LFHD			NABA_RFHD			NABA_LBHD			NABA_RBHD			NABA_LFTShould			NABA_RFTShould			NABA_LRRShould			NABA_RRRShould			NABA_T10			NABA_STRN			NABA_TRUN			NABA_LSHO			NABA_LUPA			NABA_LELB			NABA_LFRM			NABA_LWRA			NABA_LWRB			NABA_LFIN			NABA_RSHO			NABA_RUPA			NABA_RELB			NABA_RFRM			NABA_RWRA			NABA_RWRB			NABA_RFIN			NABA_LFWT			NABA_RFWT			NABA_LBWT			NABA_RBWT			NABA_LTHI			NABA_LKNE			NABA_LSHN			NABA_LANK			NABA_LHEE			NABA_LTOE			NABA_RTHI			NABA_RKNE			NABA_RSHN			NABA_RANK			NABA_RHEE			NABA_RTOE		
		X1	Y1	Z1	X2	Y2	Z2	X3	Y3	Z3	X4	Y4	Z4	X5	Y5	Z5	X6	Y6	Z6	X7	Y7	Z7	X8	Y8	Z8	X9	Y9	Z9	X10	Y10	Z10	X11	Y11	Z11	X12	Y12	Z12	X13	Y13	Z13	X14	Y14	Z14	X15	Y15	Z15	X16	Y16	Z16	X17	Y17	Z17	X18	Y18	Z18	X19	Y19	Z19	X20	Y20	Z20	X21	Y21	Z21	X22	Y22	Z22	X23	Y23	Z23	X24	Y24	Z24	X25	Y25	Z25	X26	Y26	Z26	X27	Y27	Z27	X28	Y28	Z28	X29	Y29	Z29	X30	Y30	Z30	X31	Y31	Z31	X32	Y32	Z32	X33	Y33	Z33	X34	Y34	Z34	X35	Y35	Z35	X36	Y36	Z36	X37	Y37	Z37	X38	Y38	Z38	X39	Y39	Z39	X40	Y40	Z40	X41	Y41	Z41
																																																																																																																												
147	4.877	211.43202	1555.45837	889.05334	41.87537	1532.78366	912.15645	226.72813	1524.25919	767.201	8.89447	1514.70978	816.96144	204.75054	1279.31389	881.4386	69.39459	1272.12967	871.21826	213.04823	1322.62299	757.81479	63.07023	1316.707	754.15443	156.88851	1151.93085	699.35341	136.13732	1225.5233	926.42319	134.47014	1132.33284	981.17058	306.10504	1297.89047	834.63051	372.12414	1058.70651	853.95996	384.74842	985.355	899.92157	378.18302	908.04405	906.0025	321.76212	802.91573	1034.97131	394.21246	802.31422	1033.1366	374.70558	766.2854	1094.86282	-21.76425	1286.53564	811.26465	-47.20087	1095.1223	724.34158	-84.96979	968.64059	746.51268	-90.8221	873.28011	744.19678	-51.46857	741.07239	827.86247	-121.89677	732.77351	805.24605	-116.01678	692.74155	835.01404	277.3036	895.70053	913.92372	10.03942	891.71928	916.9754	216.30877	960.78392	744.33189	53.37493	960.88478	738.75984	271.29946	615.94978	736.58836	254.54983	458.23967	761.62636	184.96141	264.82334	730.43633	209.05325	132.55349	627.81803	153.4571	103.17293	555.82623	164.9577	49.06967	728.58887	15.66767	595.88619	874.42749	26.55168	494.6981	1048.73451	39.36685	333.92464	1095.74478	39.67847	131.68	1116.9915	100.66831	64.6335	1084.65675	37.77573	108.40787	1265.89157
148	4.91	211.40385	1549.21585	931.55319	41.69311	1526.73553	953.47305	227.68673	1516.77902	810.12901	9.52045	1507.6178	858.23288	204.67485	1270.78407	926.26953	69.29166	1264.29642	915.04051	214.14593	1315.84991	802.69455	63.82104	1310.4425	797.7404	157.3498	1145.64659	742.87773	135.68132	1216.28624	970.07431	133.1465	1123.24646	1024.71024	306.22375	1289.23248	880.70992	370.13008	1049.54727	903.39714	383.34011	977.53189	950.91995	375.8284	900.28976	960.91614	318.27108	803.19397	1095.7119	390.87513	801.15402	1093.59726	371.88808	769.60609	1157.0607	-21.48896	1279.64272	854.80789	-47.56515	1088.92029	765.76584	-84.95682	962.0533	787.49474	-90.78988	867.1312	783.47992	-49.7449	733.29285	863.32466	-120.61573	725.16167	841.75949	-113.55026	684.06197	870.68253	277.10718	889.86069	957.03873	9.46678	884.38309	961.84799	214.10864	955.54703	787.97554	50.84473	954.6814	783.39844	271.97376	616.16875	770.18204	257.90884	457.18182	788.93982	189.44405	264.4751	747.08145	212.93365	139.21277	635.55595	157.11983	114.52499	562.20711	167.67677	49.03584	730.39505	14.79951	587.76314	914.44107	28.63839	482.65091	1083.89832	43.22389	330.21225	1141.30188	43.89673	131.50767	1181.78726	102.19858	60.22974	1153.00735	49.38485	120.32894	1333.89923
149	4.943	211.46673	1545.15366	974.44427	41.50468	1523.38272	995.50621	228.45953	1511.1615	853.53584	10.02438	1503.15765	900.28915	203.84472	1265.67101	972.26967	68.32342	1259.98428	960.34988	214.43781	1310.99457	848.43414	64.00502	1305.9938	842.55913	157.14674	1140.64919	788.8343	134.24663	1211.68617	1015.88943	130.91721	1118.98521	1070.9623	305.71604	1283.41431	927.4369	366.89316	1043.11081	950.68428	380.76843	971.89758	999.00528	372.34207	894.67499	1011.32469	314.72763	802.98576	1149.88655	387.31346	799.80042	1147.14111	369.06136	771.36971	1211.75629	-21.82017	1275.6575	899.14413	-47.40513	1085.26115	809.43298	-84.52924	958.16689	830.8094	-90.30485	863.84827	825.18158	-48.87649	728.3474	901.45439	-119.98187	720.69565	880.44357	-112.01014	678.36998	908.31764	276.28368	885.03662	1001.88034	8.00535	880.33142	1008.91449	210.98675	951.91887	834.19067	48.19959	951.18774	830.01442	271.95303	617.12067	807.97043	261.21689	457.27554	821.09581	194.89216	265.94799	767.31628	218.88594	149.42513	646.42059	163.07699	130.22257	571.64398	171.53896	49.15596	733.51265	14.80437	584.10069	959.41124	31.80905	478.72227	1128.69759	47.37643	322.17087	1182.96242	49.15204	121.71747	1215.2346	106.13186	51.56468	1181.99326	62.07193	105.23735	1367.02927
150	4.977	211.7898	1543.24142	1017.38235	41.62966	1523.11966	1038.23128	228.93496	1506.97845	897.16354	10.35091	1501.42197	943.28133	202.14792	1264.11156	1018.79379	66.74368	1259.05975	1007.02698	213.5388	1308.79868	894.84879	63.00425	1303.61099	888.90396	155.82956	1137.66197	836.70868	132.26877	1211.30005	1063.34717	128.47383	1118.79463	1119.0612	304.56213	1281.38214	974.42245	363.41351	1040.62134	996.05598	377.43992	969.27162	1043.53859	368.29308	892.03667	1056.65459	311.35996	802.77092	1197.16774	383.904	798.53302	1193.51349	366.27396	771.45332	1258.74542	-23.15212	1274.42184	945.29816	-46.91182	1084.82086	855.57297	-84.12429	957.50969	875.58365	-89.57554	863.45261	868.6834	-48.74521	726.70601	942.96043	-119.80244	719.40376	921.05545	-111.70437	676.28181	948.07648	274.77175	881.79153	1050.6588	5.65479	881.22177	1060.73662	208.91182	948.5067	883.44955	45.54571	949.39812	881.6114	269.44204	618.54206	850.21141	264.33022	458.41949	858.82294	200.86634	269.16956	793.31032	224.8749	163.64676	662.12547	168.77983	151.12483	587.16888	176.12255	48.49122	738.31215	10.32434	583.40485	1007.01141	33.78648	473.81542	1168.11897	49.23347	308.62078	1212.81403	57.00637	107.71169	1228.99376	115.78712	46.04455	1193.50273	69.90707	74.97134	1376.73172
151	5.01	212.07094	1547.84012	1060.121	41.87325	1530.19028	1081.62842	228.66329	1509.24042	940.5632	10.18441	1507.04865	987.17545	201.05434	1268.37524	1065.89012	65.11054	1262.07596	1055.35522	211.36822	1312.33109	940.69138	60.52316	1306.32278	937.0079	154.13836	1140.44693	885.80788	131.28174	1215.67551	1111.86378	127.91906	1124.08463	1169.15184	302.96047	1284.71466	1020.10193	360.1218	1042.10793	1038.94447	373.82633	970.32822	1084.81644	363.63171	893.10204	1097.11533	308.41969	802.59842	1237.32018	380.83595	797.56714	1232.44606	363.7899	770.16586	1297.73148	-25.28524	1276.53465	994.44115	-47.35322	1087.43515	904.44252	-84.79586	959.76479	923.41812	-89.94044	866.00082	915.01999	-49.51697	728.30811	987.50931	-120.14406	721.00204	964.58298	-112.34629	677.38602	990.82855	272.5477	883.15781	1101.64673	5.32108	887.88956	1111.3945	207.44106	949.79401	934.38446	43.73224	957.91603	933.24684	264.64188	619.81396	900.38284	265.90199	460.8828	908.97926	208.49979	274.11591	830.91255	230.83647	184.37702	687.57164	173.88954	179.41401	615.0423	179.18434	46.26678	745.84282	6.96846	591.93512	1046.81862	34.33175	475.29827	1206.90247	54.09873	311.04351	1248.04298	59.17678	108.75827	1254.06128	113.50615	51.82088	1205.22873	83.70607	53.62569	1405.21255
152	5.043	212.19385	1554.85977	1102.59277	42.23233	1539.04404	1125.36476	228.06042	1514.24942	983.55713	9.76349	1514.61227	1031.4679	200.07879	1277.01706	1112.90314	64.89427	1269.9115	1103.06046	209.8918	1320.18951	987.8817	59.43777	1312.88055	984.62578	153.48397	1146.95694	933.32504	130.8667	1225.21843	1160.30304	128.10263	1134.11156	1218.4874	302.49861	1294.08218	1066.717	356.16814	1050.85869	1078.0629	370.03784	977.64114	1122.66777	359.42646	900.20981	1131.95892	305.85745	804.02672	1269.23157	378.00362	798.62343	1262.65495	362.22187	768.55591	1327.04636	-25.79513	1283.59146	1043.5675	-49.14693	1094.53003	954.99435	-86.00673	966.75446	975.25871	-91.76524	873.85269	965.77255	-51.27033	734.69963	1035.4129	-122.47896	728.33107	1013.41682	-113.95733	683.5714	1038.47977	267.51829	887.63611	1149.48311	2.7768	898.65593	1157.89459	206.60652	957.35291	983.6824	43.5039	968.39851	979.81956	260.35158	616.01818	958.8456	269.05451	459.25671	975.51476	218.03467	277.45792	885.42618	238.04344	206.48083	731.14578	179.16586	210.46387	662.79793	181.65356	43.42227	759.20135	-1.01534	600.96638	1091.44455	35.63882	483.65574	1246.21811	56.83374	311.25874	1275.60181	62.24619	108.95913	1266.6954	113.67534	54.55459	1209.17572	92.5594	47.07644	1403.73688
153	5.077	212.06633	1563.30826	1144.89159	42.38947	1547.60803	1169.01566	227.36773	1520.63156	1026.51016	9.38466	1521.47537	1075.7412	199.97124	1286.42822	1157.62367	65.2324	1278.58788	1149.50043	209.05924	1327.9184	1032.771	58.53179	1320.86426	1031.64459	151.64008	1154.6936	979.03458	131.34837	1235.71365	1206.70822	128.73468	1144.55284	1265.05135	302.30097	1304.50104	1111.47339	354.28059	1061.91399	1116.91833	367.30869	986.35864	1157.66167	356.04023	908.76701	1163.10944	304.11015	805.58357	1296.07742	376.00071	799.85008	1287.45377	360.46604	765.38673	1350.41626	-26.1067	1292.75803	1091.47949	-52.54223	1102.6725	1006.15227	-87.9168	975.79742	1027.77229	-94.16162	883.05946	1018.84842	-53.34289	743.85765	1088.0687	-125.21513	738.24074	1067.47459	-115.91363	692.81204	1091.95137	262.80235	892.36809	1192.20718	-1.92304	905.7972	1201.2323	204.77308	962.4028	1026.67961	41.76516	975.298	1023.85376	259.85062	608.5862	1019.04228	270.08039	453.71532	1053.0394	222.31823	281.13049	954.58862	244.41713	226.33514	794.70734	187.74965	239.03618	728.8726	187.98597	55.6467	788.30978	-2.85754	607.78111	1124.92302	33.85645	483.14816	1273.83774	56.78622	309.6027	1294.75662	63.61321	107.90308	1271.74286	114.7064	56.85608	1211.27296	95.63636	43.41825	1408.93021
154	5.11	212.24903	1570.53162	1186.97678	42.93895	1554.25262	1212.71019	226.8083	1526.63559	1068.89404	9.20603	1526.94351	1119.99817	200.81152	1293.53485	1199.33487	66.70798	1286.35498	1193.73367	207.42182	1334.99283	1075.14099	57.03103	1328.4256	1077.03552	147.70437	1162.06627	1021.30173	133.13878	1243.57407	1250.25452	131.25757	1151.61888	1307.67868	302.11004	1312.22382	1152.42165	354.71275	1070.46852	1154.19922	366.01913	992.88734	1191.89819	354.56806	915.50148	1192.92137	303.75662	804.57062	1319.76959	375.55264	799.35181	1310.24628	358.76778	759.20692	1370.82062	-26.22075	1300.96588	1139.19388	-58.59155	1110.2655	1056.53603	-91.81543	983.57864	1080.50491	-98.51046	890.46669	1073.45825	-55.3983	752.38907	1143.72482	-128.06371	746.72417	1126.05408	-117.9215	701.71112	1150.67589	262.68085	897.52449	1230.7222	-2.15714	911.18233	1243.69934	200.68077	964.57764	1064.07692	38.9223	981.92856	1066.27846	260.79586	602.83272	1085.60165	272.61881	452.25777	1138.23814	221.3014	286.40463	1035.57312	247.93587	240.39293	873.9019	191.18814	258.03009	808.08456	200.01816	67.29144	842.77512	-3.50054	613.63586	1154.79309	33.47961	481.44905	1297.85263	57.2691	307.67548	1310.42679	64.29526	107.367	1276.42784	115.25901	58.66414	1212.64526	97.37937	42.48353	1410.24078
